<?xml version="1.0" encoding="UTF-8"?>
<svg width="87px" height="76px" viewBox="0 0 87 76" version="1.1" xmlns="http://www.w3.org/2000/svg" xmlns:xlink="http://www.w3.org/1999/xlink">
    <!-- Generator: Sketch 61 (89581) - https://sketch.com -->
    <title>Group 22</title>
    <desc>Created with Sketch.</desc>
    <defs>
        <polygon id="path-1" points="0.082370885 0.6525 26.3349897 0.6525 26.3349897 26.9358 0.082370885 26.9358"></polygon>
    </defs>
    <g id="Welcome" stroke="none" stroke-width="1" fill="none" fill-rule="evenodd">
        <g id="Desktop-HD" transform="translate(-697.000000, -50.000000)">
            <g id="Group-22" transform="translate(697.000000, 49.500000)">
                <path d="M0,51.3303527 C0.0263592782,37.8068652 11.1989279,26.4832834 24.5135321,26.5 C37.9897851,26.5167536 49.026268,37.8661987 49,51.669619 C48.97439,65.1931066 37.7882879,76.5265772 24.4872172,76.5 C11.0041974,76.4771326 -0.0255187323,65.1406192 0,51.3303527" id="Fill-1" fill="#99B7AE"></path>
                <g id="Group-5" transform="translate(42.000000, 0.500000)">
                    <mask id="mask-2" fill="white">
                        <use xlink:href="#path-1"></use>
                    </mask>
                    <g id="Clip-4"></g>
                    <path d="M26.3349897,13.7748 C26.36115,21.15255 20.6259,26.9358 13.29315,26.9358 C6.1944,26.9358 0.17415,21.1008 0.0834,14.1288 C-0.00735,6.7218 5.9154,0.66855 13.2609,0.652037602 C20.6004,0.6423 26.3154,6.3843 26.3349897,13.7748" id="Fill-3" fill="#99B7AE" mask="url(#mask-2)"></path>
                </g>
                <path d="M86.9987758,33.1541497 C86.9255192,37.220963 83.39301,40.6105997 79.3399935,40.4972364 C75.2129493,40.3936329 71.927199,36.9672094 72.0012267,32.8523481 C72.0744833,28.7532526 75.5676653,25.3951473 79.6538401,25.5025046 C83.7801132,25.6128649 87.0728035,29.0392883 86.9987758,33.1541497" id="Fill-6" fill="#99B7AE"></path>
            </g>
        </g>
    </g>
</svg>