<?xml version="1.0" encoding="utf-8"?>
<!-- Generator: Adobe Illustrator 25.1.0, SVG Export Plug-In . SVG Version: 6.00 Build 0)  -->
<svg version="1.1" id="Capa_1" xmlns="http://www.w3.org/2000/svg" xmlns:xlink="http://www.w3.org/1999/xlink" x="0px" y="0px"
	 viewBox="0 0 512 512" style="enable-background:new 0 0 512 512;" xml:space="preserve">
<path d="M85.1,39.8c-27.8,0-50.4,22.6-50.4,50.4s22.6,50.4,50.4,50.4s50.4-22.6,50.4-50.4S112.9,39.8,85.1,39.8z M108.1,79.1
	c0,0.5,0,1,0,1.5c0,15.3-11.6,32.9-32.9,32.9h0h0c-6.5,0-12.6-1.9-17.7-5.2c0.9,0.1,1.8,0.2,2.8,0.2c5.4,0,10.4-1.8,14.4-4.9
	c-5.1-0.1-9.3-3.4-10.8-8c0.7,0.1,1.4,0.2,2.2,0.2c1.1,0,2.1-0.1,3-0.4c-5.3-1.1-9.3-5.7-9.3-11.3c0-0.1,0-0.1,0-0.1
	c1.6,0.9,3.3,1.4,5.2,1.4c-3.1-2.1-5.1-5.6-5.1-9.6c0-2.1,0.6-4.1,1.6-5.8c5.7,7,14.2,11.6,23.8,12.1c-0.2-0.8-0.3-1.7-0.3-2.6
	c0-6.4,5.2-11.6,11.6-11.6c3.3,0,6.3,1.4,8.4,3.7c2.6-0.5,5.1-1.5,7.3-2.8c-0.9,2.7-2.7,5-5.1,6.4c2.3-0.3,4.6-0.9,6.6-1.8
	C112.3,75.5,110.4,77.5,108.1,79.1z"/>
<g>
	<path d="M199,90.2c0,5.3-4.3,9.6-9.6,9.6s-9.6-4.3-9.6-9.6s4.3-9.6,9.6-9.6S199,84.9,199,90.2z"/>
	<path d="M211.9,73.2c-0.5-1.3-1.2-2.4-2.2-3.3c-0.9-1-2.1-1.7-3.3-2.2c-1-0.4-2.6-0.9-5.4-1c-3.1-0.1-4-0.2-11.7-0.2
		c-7.7,0-8.6,0-11.7,0.2c-2.8,0.1-4.4,0.6-5.4,1c-1.3,0.5-2.4,1.2-3.3,2.2c-1,0.9-1.7,2.1-2.2,3.3c-0.4,1-0.9,2.6-1,5.4
		c-0.1,3.1-0.2,4-0.2,11.7c0,7.7,0,8.6,0.2,11.7c0.1,2.8,0.6,4.4,1,5.4c0.5,1.3,1.2,2.4,2.2,3.3c0.9,1,2.1,1.7,3.3,2.2
		c1,0.4,2.6,0.9,5.4,1c3.1,0.1,4,0.2,11.7,0.2c7.7,0,8.6,0,11.7-0.2c2.8-0.1,4.4-0.6,5.4-1c2.5-1,4.5-3,5.5-5.5c0.4-1,0.9-2.6,1-5.4
		c0.1-3.1,0.2-4,0.2-11.7c0-7.7,0-8.6-0.2-11.7C212.7,75.7,212.3,74.2,211.9,73.2z M189.3,105.1c-8.2,0-14.9-6.6-14.9-14.9
		s6.7-14.9,14.9-14.9c8.2,0,14.9,6.6,14.9,14.9S197.5,105.1,189.3,105.1z M204.8,78.3c-1.9,0-3.5-1.6-3.5-3.5c0-1.9,1.6-3.5,3.5-3.5
		s3.5,1.6,3.5,3.5C208.2,76.7,206.7,78.3,204.8,78.3z"/>
	<path d="M189.3,39.8c-27.8,0-50.4,22.6-50.4,50.4s22.6,50.4,50.4,50.4s50.4-22.6,50.4-50.4S217.1,39.8,189.3,39.8z M218.1,102.1
		c-0.1,3.1-0.6,5.2-1.3,7c-1.5,3.9-4.6,7-8.5,8.5c-1.8,0.7-3.9,1.2-7,1.3c-3.1,0.1-4.1,0.2-11.9,0.2c-7.9,0-8.8,0-11.9-0.2
		c-3.1-0.1-5.2-0.6-7-1.3c-1.9-0.7-3.7-1.9-5.1-3.3c-1.5-1.4-2.6-3.2-3.3-5.1c-0.7-1.8-1.2-3.9-1.3-7c-0.1-3.1-0.2-4.1-0.2-11.9
		s0-8.8,0.2-11.9c0.1-3.1,0.6-5.2,1.3-7c0.7-1.9,1.9-3.7,3.3-5.1c1.4-1.5,3.2-2.6,5.1-3.3c1.8-0.7,3.9-1.2,7-1.3
		c3.1-0.1,4.1-0.2,11.9-0.2c7.9,0,8.8,0,11.9,0.2c3.1,0.1,5.2,0.6,7,1.3c1.9,0.7,3.7,1.9,5.1,3.3c1.5,1.4,2.6,3.2,3.3,5.1
		c0.7,1.8,1.2,3.9,1.3,7c0.1,3.1,0.2,4.1,0.2,11.9S218.2,99.1,218.1,102.1z"/>
</g>
<path d="M293.6,39.7c-27.9,0-50.4,22.6-50.4,50.4s22.6,50.4,50.4,50.4c27.9,0,50.4-22.6,50.4-50.4S321.5,39.7,293.6,39.7z M279,116
	h-12.3V79H279V116z M272.8,74L272.8,74c-4.2,0-6.9-2.8-6.9-6.4c0-3.6,2.7-6.4,7-6.4c4.2,0,6.8,2.8,6.9,6.4
	C279.8,71.1,277.1,74,272.8,74z M323.3,116H311V96.2c0-5-1.8-8.4-6.2-8.4c-3.4,0-5.4,2.3-6.3,4.5c-0.3,0.8-0.4,1.9-0.4,3V116h-12.3
	c0,0,0.2-33.5,0-37H298v5.2c1.6-2.5,4.6-6.1,11.1-6.1c8.1,0,14.1,5.3,14.1,16.6V116z"/>
<path d="M448.3,90.2c0-27.8-22.6-50.4-50.4-50.4s-50.4,22.6-50.4,50.4s22.6,50.4,50.4,50.4c0.3,0,0.6,0,0.9,0v-39.2H388V88.8h10.8
	v-9.3c0-10.8,6.6-16.6,16.2-16.6c4.6,0,8.6,0.3,9.7,0.5v11.3h-6.6c-5.2,0-6.2,2.5-6.2,6.1v8h12.5l-1.6,12.6h-10.9v37.3
	C432.9,132.6,448.3,113.2,448.3,90.2z"/>
</svg>
