<svg xmlns="http://www.w3.org/2000/svg" viewBox="0 0 522.48 63.64"><defs><style>.cls-1{fill:#e0e0e0;}</style></defs><g id="Capa_2" data-name="Capa 2"><g id="Capa_1-2" data-name="Capa 1"><rect class="cls-1" width="522.48" height="63.64" rx="31.82"/><path d="M162.71,38.93A7.86,7.86,0,0,1,159.66,36a8.55,8.55,0,0,1,0-8.41,7.93,7.93,0,0,1,3.06-2.91,8.92,8.92,0,0,1,4.35-1.06,9.19,9.19,0,0,1,3.57.68,7.17,7.17,0,0,1,2.72,2l-1.91,1.79a5.55,5.55,0,0,0-4.24-1.86,6,6,0,0,0-2.93.71,5.18,5.18,0,0,0-2,2,6.14,6.14,0,0,0,0,5.77,5.18,5.18,0,0,0,2,2,5.92,5.92,0,0,0,2.93.72,5.51,5.51,0,0,0,4.24-1.89l1.91,1.82a7.21,7.21,0,0,1-2.73,2,9.1,9.1,0,0,1-3.58.69A9,9,0,0,1,162.71,38.93Z"/><path d="M178.92,38.93A7.8,7.8,0,0,1,175.85,36a8.46,8.46,0,0,1,0-8.38,7.73,7.73,0,0,1,3.07-2.93,9.58,9.58,0,0,1,8.76,0,7.75,7.75,0,0,1,3.07,2.91,8.52,8.52,0,0,1,0,8.41,7.85,7.85,0,0,1-3.07,2.92,9.58,9.58,0,0,1-8.76,0Zm7.24-2.25a5.13,5.13,0,0,0,2-2,5.65,5.65,0,0,0,.73-2.87,5.71,5.71,0,0,0-.73-2.88,5.19,5.19,0,0,0-2-2,6.12,6.12,0,0,0-5.72,0,5.19,5.19,0,0,0-2,2,5.71,5.71,0,0,0-.73,2.88,5.65,5.65,0,0,0,.73,2.87,5.13,5.13,0,0,0,2,2,6,6,0,0,0,5.72,0Z"/><path d="M209.61,39.76l0-10.54-5.22,8.72H203l-5.22-8.59V39.76H195V23.86h2.43l6.31,10.54L210,23.86h2.43l0,15.9Z"/><path d="M226.83,24.54a5.2,5.2,0,0,1,2.36,1.95,6,6,0,0,1,0,6,5.24,5.24,0,0,1-2.36,2,8.86,8.86,0,0,1-3.6.68h-3.58v4.59h-3V23.86h6.54A8.7,8.7,0,0,1,226.83,24.54Zm-.8,7.31a2.86,2.86,0,0,0,1-2.34,2.88,2.88,0,0,0-1-2.34,4.59,4.59,0,0,0-2.93-.81h-3.45v6.31h3.45A4.53,4.53,0,0,0,226,31.85Z"/><path d="M243.36,39.76l-3.25-4.66a4.91,4.91,0,0,1-.61,0h-3.59v4.64H233V23.86h6.54a8.7,8.7,0,0,1,3.6.68,5.17,5.17,0,0,1,2.35,1.95,5.44,5.44,0,0,1,.82,3,5.33,5.33,0,0,1-.88,3.09,5.13,5.13,0,0,1-2.51,1.93l3.66,5.23Zm-1.07-12.59a4.55,4.55,0,0,0-2.93-.81h-3.45v6.33h3.45a4.43,4.43,0,0,0,2.93-.83,2.86,2.86,0,0,0,1-2.35A2.85,2.85,0,0,0,242.29,27.17Z"/><path d="M259.88,36.08h-7.95l-1.57,3.68h-3.05l7.16-15.9h2.91l7.18,15.9h-3.09Zm-1-2.32-3-6.95-3,7Z"/><path d="M276.07,26.36H270.8v-2.5h13.5v2.5H279v13.4h-3Z"/><path d="M287.93,38.13a7.18,7.18,0,0,1-1.84-5.3v-9h3v8.86q0,4.68,4,4.68t4-4.68V23.86H300v9a7.21,7.21,0,0,1-1.83,5.3,8,8,0,0,1-10.26,0Z"/><path d="M313.65,26.36h-5.28v-2.5h13.5v2.5H316.6v13.4h-3Z"/><path d="M336,37.28v2.48H324.09V23.86H335.7v2.47h-8.65v4.14h7.68V32.9h-7.68v4.38Z"/><path d="M340.69,39.46A7.53,7.53,0,0,1,338,38.08l1-2.3A7.84,7.84,0,0,0,341.39,37a8.63,8.63,0,0,0,2.85.49,4.92,4.92,0,0,0,2.65-.57,1.71,1.71,0,0,0,.87-1.5,1.47,1.47,0,0,0-.48-1.12,3.31,3.31,0,0,0-1.24-.69c-.5-.17-1.18-.36-2.05-.57a25.88,25.88,0,0,1-2.94-.86,4.83,4.83,0,0,1-1.93-1.36,3.61,3.61,0,0,1-.81-2.48A4.23,4.23,0,0,1,339,26a4.83,4.83,0,0,1,2.16-1.71,8.63,8.63,0,0,1,3.53-.64,11.5,11.5,0,0,1,2.86.36A7.93,7.93,0,0,1,350,25l-.93,2.29a8.9,8.9,0,0,0-2.18-.93,8.24,8.24,0,0,0-2.2-.32,4.6,4.6,0,0,0-2.6.59,1.84,1.84,0,0,0-.86,1.57,1.41,1.41,0,0,0,.49,1.11A3.61,3.61,0,0,0,343,30c.5.16,1.18.35,2,.56a21.37,21.37,0,0,1,2.9.86,4.9,4.9,0,0,1,1.95,1.35,3.58,3.58,0,0,1,.8,2.45,4.27,4.27,0,0,1-.71,2.39,4.93,4.93,0,0,1-2.17,1.7,8.9,8.9,0,0,1-3.55.64A12.06,12.06,0,0,1,340.69,39.46Z"/><path d="M356.6,26.36h-5.27v-2.5h13.49v2.5h-5.27v13.4H356.6Z"/></g></g></svg>