<svg xmlns="http://www.w3.org/2000/svg" viewBox="0 0 100.75 100.75"><g id="Capa_2" data-name="Capa 2"><g id="Capa_1-2" data-name="Capa 1"><path d="M60,50.38a9.65,9.65,0,1,1-9.64-9.65A9.65,9.65,0,0,1,60,50.38Z"/><path d="M72.92,33.32a9.52,9.52,0,0,0-5.49-5.49,15.85,15.85,0,0,0-5.37-1c-3.05-.14-4-.17-11.68-.17s-8.64,0-11.69.17a15.85,15.85,0,0,0-5.37,1A8.88,8.88,0,0,0,30,30a9,9,0,0,0-2.17,3.33,16.18,16.18,0,0,0-1,5.37c-.14,3.05-.17,4-.17,11.69s0,8.63.17,11.68a16.26,16.26,0,0,0,1,5.38,9.67,9.67,0,0,0,5.49,5.49,16.32,16.32,0,0,0,5.38,1c3.05.14,4,.17,11.68.17s8.64,0,11.69-.17a16.18,16.18,0,0,0,5.37-1,9.58,9.58,0,0,0,5.49-5.49,15.92,15.92,0,0,0,1-5.38c.14-3.05.17-4,.17-11.68s0-8.64-.17-11.69A15.85,15.85,0,0,0,72.92,33.32ZM50.38,65.23A14.86,14.86,0,1,1,65.23,50.38,14.85,14.85,0,0,1,50.38,65.23ZM65.82,38.41a3.48,3.48,0,1,1,3.47-3.48A3.48,3.48,0,0,1,65.82,38.41Z"/><path d="M50.38,0a50.38,50.38,0,1,0,50.37,50.38A50.39,50.39,0,0,0,50.38,0ZM79.13,62.3a21.06,21.06,0,0,1-1.35,7,14.75,14.75,0,0,1-8.46,8.46,21.06,21.06,0,0,1-7,1.35c-3.08.14-4.07.17-11.92.17s-8.85,0-11.93-.17a21.06,21.06,0,0,1-7-1.35A14.69,14.69,0,0,1,23,69.32a21.06,21.06,0,0,1-1.35-7c-.14-3.08-.17-4.07-.17-11.92s0-8.85.17-11.93a21.06,21.06,0,0,1,1.35-7A14.69,14.69,0,0,1,31.43,23a21.06,21.06,0,0,1,7-1.35c3.08-.14,4.07-.17,11.93-.17s8.84,0,11.92.17a21.06,21.06,0,0,1,7,1.35,14.69,14.69,0,0,1,8.46,8.46,21.06,21.06,0,0,1,1.35,7c.14,3.08.17,4.07.17,11.93S79.27,59.22,79.13,62.3Z"/></g></g></svg>