<svg xmlns="http://www.w3.org/2000/svg" viewBox="0 0 100.88 100.88"><g id="Capa_2" data-name="Capa 2"><g id="Capa_1-2" data-name="Capa 1"><path d="M50.44,0a50.44,50.44,0,1,0,50.44,50.44A50.45,50.45,0,0,0,50.44,0ZM35.78,76.25H23.5v-37H35.78Zm-6.14-42h-.08c-4.12,0-6.79-2.84-6.79-6.39s2.75-6.38,7-6.38,6.79,2.76,6.87,6.38S33.92,34.25,29.64,34.25Zm50.44,42H67.8V56.48c0-5-1.78-8.36-6.23-8.36a6.73,6.73,0,0,0-6.3,4.49,8.32,8.32,0,0,0-.41,3V76.25H42.58s.16-33.49,0-37H54.86v5.24a12.22,12.22,0,0,1,11.08-6.1c8.08,0,14.14,5.28,14.14,16.63Z"/></g></g></svg>