<svg xmlns="http://www.w3.org/2000/svg" viewBox="0 0 417.96 50.91"><defs><style>.cls-1{fill:#323137;}.cls-2{fill:#fff;}</style></defs><g id="Capa_2" data-name="Capa 2"><g id="Capa_1-2" data-name="Capa 1"><rect class="cls-1" width="417.96" height="50.91" rx="25.45"/><path class="cls-2" d="M130.16,31.14a6.22,6.22,0,0,1-2.44-2.33,6.59,6.59,0,0,1-.88-3.37,6.49,6.49,0,0,1,.89-3.36,6.31,6.31,0,0,1,2.45-2.33,7.06,7.06,0,0,1,3.48-.85,7.14,7.14,0,0,1,2.85.55A5.76,5.76,0,0,1,138.69,21l-1.53,1.43A4.45,4.45,0,0,0,133.77,21a4.68,4.68,0,0,0-2.35.58,4,4,0,0,0-1.61,1.59,4.5,4.5,0,0,0-.59,2.3,4.56,4.56,0,0,0,.59,2.31,4,4,0,0,0,1.61,1.59,4.78,4.78,0,0,0,2.35.57,4.43,4.43,0,0,0,3.39-1.5l1.53,1.45a5.71,5.71,0,0,1-2.19,1.58,7.36,7.36,0,0,1-2.86.55A7.17,7.17,0,0,1,130.16,31.14Z"/><path class="cls-2" d="M143.13,31.14a6.23,6.23,0,0,1-2.46-2.34,6.77,6.77,0,0,1,0-6.71,6.23,6.23,0,0,1,2.46-2.34,7.65,7.65,0,0,1,7,0,6.25,6.25,0,0,1,2.45,2.33,6.81,6.81,0,0,1,0,6.73,6.25,6.25,0,0,1-2.45,2.33,7.65,7.65,0,0,1-7,0Zm5.79-1.8a4.1,4.1,0,0,0,1.6-1.6,4.83,4.83,0,0,0,0-4.59,4.1,4.1,0,0,0-1.6-1.6,4.81,4.81,0,0,0-4.58,0,4.1,4.1,0,0,0-1.6,1.6,4.83,4.83,0,0,0,0,4.59,4.1,4.1,0,0,0,1.6,1.6,4.89,4.89,0,0,0,4.58,0Z"/><path class="cls-2" d="M167.68,31.8l0-8.43-4.18,7h-1.06l-4.18-6.87V31.8H156V19.08h1.95L163,27.52l5-8.44h1.94l0,12.72Z"/><path class="cls-2" d="M181.46,19.63a4.16,4.16,0,0,1,1.88,1.56,4.36,4.36,0,0,1,.65,2.42,4.37,4.37,0,0,1-.65,2.41,4.24,4.24,0,0,1-1.88,1.57,7.12,7.12,0,0,1-2.88.54h-2.87V31.8h-2.36V19.08h5.23A7.11,7.11,0,0,1,181.46,19.63Zm-.65,5.85a2.26,2.26,0,0,0,.8-1.87,2.25,2.25,0,0,0-.8-1.87,3.59,3.59,0,0,0-2.34-.66h-2.76v5.05h2.76A3.59,3.59,0,0,0,180.81,25.48Z"/><path class="cls-2" d="M194.68,31.8l-2.6-3.72-.49,0h-2.87v3.7h-2.36V19.08h5.23a7.11,7.11,0,0,1,2.88.55,4.11,4.11,0,0,1,1.88,1.56,4.74,4.74,0,0,1,0,4.89,4.14,4.14,0,0,1-2,1.54l2.92,4.18Zm-.85-10.06a3.64,3.64,0,0,0-2.35-.66h-2.76v5.07h2.76a3.64,3.64,0,0,0,2.35-.66,2.31,2.31,0,0,0,.8-1.88A2.28,2.28,0,0,0,193.83,21.74Z"/><path class="cls-2" d="M207.89,28.86h-6.36l-1.25,2.94h-2.44l5.73-12.72h2.32l5.74,12.72h-2.47ZM207.11,27l-2.4-5.56L202.33,27Z"/><path class="cls-2" d="M220.85,21.08h-4.22v-2h10.8v2h-4.22V31.8h-2.36Z"/><path class="cls-2" d="M230.33,30.5a5.75,5.75,0,0,1-1.47-4.24V19.08h2.36v7.09c0,2.5,1.08,3.74,3.24,3.74s3.21-1.24,3.21-3.74V19.08H240v7.18a5.79,5.79,0,0,1-1.46,4.24,6.4,6.4,0,0,1-8.21,0Z"/><path class="cls-2" d="M250.9,21.08h-4.21v-2h10.79v2h-4.21V31.8H250.9Z"/><path class="cls-2" d="M268.8,29.82v2h-9.54V19.08h9.29v2h-6.93v3.31h6.15v1.95h-6.15v3.5Z"/><path class="cls-2" d="M272.54,31.57a6,6,0,0,1-2.18-1.11l.82-1.84a6.23,6.23,0,0,0,1.92,1,7,7,0,0,0,2.28.39,4,4,0,0,0,2.12-.45,1.38,1.38,0,0,0,.7-1.2,1.17,1.17,0,0,0-.39-.9,2.63,2.63,0,0,0-1-.55c-.4-.14-.95-.29-1.64-.46a19,19,0,0,1-2.35-.69,3.89,3.89,0,0,1-1.55-1.08,2.9,2.9,0,0,1-.64-2,3.43,3.43,0,0,1,.57-1.92,3.91,3.91,0,0,1,1.73-1.37,7,7,0,0,1,2.82-.51,9.27,9.27,0,0,1,2.29.29A6.68,6.68,0,0,1,280,20l-.75,1.83a7.78,7.78,0,0,0-1.74-.74,6.6,6.6,0,0,0-1.77-.26,3.65,3.65,0,0,0-2.08.48,1.45,1.45,0,0,0-.68,1.25,1.14,1.14,0,0,0,.39.89,2.93,2.93,0,0,0,1,.55c.4.13.95.28,1.64.45a18.35,18.35,0,0,1,2.32.68,4.06,4.06,0,0,1,1.56,1.08,2.87,2.87,0,0,1,.64,2,3.34,3.34,0,0,1-.57,1.9,3.91,3.91,0,0,1-1.73,1.37,7.1,7.1,0,0,1-2.84.51A9.62,9.62,0,0,1,272.54,31.57Z"/><path class="cls-2" d="M285.27,21.08h-4.22v-2h10.8v2h-4.22V31.8h-2.36Z"/></g></g></svg>