<?xml version="1.0" encoding="utf-8"?>
<!-- Generator: Adobe Illustrator 25.1.0, SVG Export Plug-In . SVG Version: 6.00 Build 0)  -->
<svg version="1.1" id="Capa_1" xmlns="http://www.w3.org/2000/svg" xmlns:xlink="http://www.w3.org/1999/xlink" x="0px" y="0px"
	 viewBox="0 0 512 512" style="enable-background:new 0 0 512 512;" xml:space="preserve">
<style type="text/css">
	.st0{fill:#99B7AE;}
</style>
<g>
	<g>
		<path class="st0" d="M383.8,171.8c-7.9-8.3-21-8.7-29.3-0.8L222,296.7l-63.2-64.9c-8-8.2-21.1-8.4-29.4-0.4
			c-8.2,8-8.4,21.1-0.4,29.4l77.5,79.6c4.1,4.2,9.5,6.3,14.9,6.3c5.1,0,10.3-1.9,14.3-5.7l147.4-139.8
			C391.4,193.3,391.7,180.2,383.8,171.8z"/>
	</g>
</g>
<g>
	<path class="st0" d="M256,62.9C149.5,62.9,62.9,149.5,62.9,256S149.5,449.1,256,449.1S449.1,362.5,449.1,256S362.5,62.9,256,62.9z
		 M256,417.8c-89.2,0-161.8-72.6-161.8-161.8c0-89.2,72.6-161.8,161.8-161.8c89.2,0,161.8,72.6,161.8,161.8
		C417.8,345.2,345.2,417.8,256,417.8z"/>
</g>
</svg>
