<svg xmlns="http://www.w3.org/2000/svg" viewBox="0 0 100.75 100.75"><g id="Capa_2" data-name="Capa 2"><g id="Capa_1-2" data-name="Capa 1"><path d="M50.38,0a50.38,50.38,0,1,0,50.37,50.38A50.39,50.39,0,0,0,50.38,0Zm23,39.28c0,.49,0,1,0,1.49,0,15.28-11.63,32.9-32.9,32.9h0a32.7,32.7,0,0,1-17.72-5.19,25,25,0,0,0,2.76.16,23.23,23.23,0,0,0,14.36-5,11.59,11.59,0,0,1-10.81-8,11.19,11.19,0,0,0,2.18.21,11.81,11.81,0,0,0,3-.4,11.58,11.58,0,0,1-9.28-11.34V44a11.59,11.59,0,0,0,5.24,1.44A11.56,11.56,0,0,1,26.71,30,32.84,32.84,0,0,0,50.54,42.07,11.58,11.58,0,0,1,70.25,31.52a23.15,23.15,0,0,0,7.34-2.81,11.63,11.63,0,0,1-5.09,6.4,23.07,23.07,0,0,0,6.64-1.82A23.44,23.44,0,0,1,73.38,39.28Z"/></g></g></svg>